<svg aria-hidden="true" style="width:0;height:0;position:absolute;overflow:hidden" xmlns="http://www.w3.org/2000/svg"><defs><symbol id="icon-icecream" viewBox="0 0 127 32"><path fill="#fff" style="fill:var(--color1,#fff)" d="M31.36 16.32C31.36 24.98 24.483 32 16 32S.64 24.98.64 16.32 7.517.64 16 .64s15.36 7.02 15.36 15.68z"/><path fill="#d41443" style="fill:var(--color2,#d41443)" d="M11.849.562C4.443 2.805 0 8.635 0 16.004c0 6.023 3.091 11.277 8.179 13.904 2.64 1.346 3.027.384.58-1.474-1.739-1.41-2.061-2.05-2.061-4.421 0-1.666-.386-3.011-.966-3.524-1.159-.961-1.288-3.46-.129-4.357.451-.384.902-1.666.966-2.819.322-4.229 4.894-8.201 9.467-8.201s9.145 3.973 9.466 8.201c.064 1.153.515 2.435.966 2.819 1.159.897 1.03 3.396-.129 4.357-.58.513-.966 1.858-.966 3.524 0 2.371-.322 3.011-2.061 4.421-2.705 2.114-1.932 2.883 1.095 1.025 4.25-2.627 7.406-8.33 7.406-13.391C31.813 5.944 21.252-2.257 11.85.562z"/><path fill="#d41443" style="fill:var(--color2,#d41443)" d="M12.686 7.994c-1.159.513-2.125 1.153-2.125 1.538 0 .705 3.477 1.986 5.474 1.986s5.474-1.281 5.474-1.986c0-.769-3.993-2.499-5.603-2.499-.644.064-2.125.449-3.22.961zM45.851 11.326c-.966.256-1.159 1.089-1.159 5.703v5.382h4.572l-.193-5.574c-.193-5.831-.451-6.279-3.22-5.51zM53.386 11.646c-2.125 1.153-2.898 2.563-2.898 5.318 0 3.78 2.061 5.574 5.86 5.318 2.576-.192 2.833-.384 3.027-1.986s.064-1.73-1.932-1.602c-2.061.192-2.125.064-2.125-2.05s.129-2.243 1.996-2.05c1.546.128 2.125-.128 2.383-1.089.129-.641 0-1.538-.386-1.922-.902-.897-4.25-.897-5.925.064zM61.049 11.71c-.193.513-.258 3.011-.129 5.638l.193 4.741h4.186c3.864 0 4.186-.128 4.379-1.474.193-1.217-.064-1.41-2.06-1.41-1.288 0-2.319-.32-2.319-.641 0-.384.902-.641 1.932-.641 1.481 0 1.932-.256 1.932-1.281s-.451-1.281-1.932-1.281c-1.03 0-1.932-.32-1.932-.641 0-.384.837-.641 1.868-.641 1.804 0 3.027-1.41 2.254-2.627-.58-.961-7.985-.705-8.372.256zM73.993 11.518c-2.125.833-2.962 2.307-3.027 4.998-.065 4.613 1.803 6.215 6.633 5.767 1.868-.128 2.189-.448 2.189-1.794 0-1.41-.257-1.602-2.061-1.41-1.546.128-2.125-.064-2.447-1.089-.58-1.986.644-3.588 2.705-3.588 1.224 0 1.868-.384 1.996-1.217.451-2.05-2.833-3.011-5.989-1.666zM81.914 11.262c-.323.256-.515 2.883-.515 5.831v5.382l2.06-.192c1.61-.128 2.19-.577 2.512-1.794l.386-1.602.515 1.73c.387 1.474.837 1.794 2.512 1.794 2.769 0 3.091-.448 1.932-2.691-.708-1.41-.837-2.114-.322-2.627.837-.833.902-3.652.129-4.87-.644-1.025-8.371-1.858-9.208-.961zm5.28 3.46c0 .705-.257 1.281-.644 1.281-.322 0-.644-.577-.644-1.281s.322-1.281.644-1.281c.387 0 .644.577.644 1.281zM93.441 11.326c-.258.192-.451 2.819-.451 5.767v5.318h4.186c4.057 0 4.186-.064 4.186-1.602 0-1.346-.322-1.602-1.932-1.602-1.03 0-1.932-.32-1.932-.641 0-.384.708-.641 1.61-.641 1.159 0 1.61-.32 1.61-1.281s-.451-1.281-1.61-1.281c-.902 0-1.61-.32-1.61-.641 0-.384.902-.641 1.932-.641 1.61 0 1.932-.256 1.932-1.602 0-1.538-.193-1.602-3.735-1.602-2.061 0-3.992.192-4.186.448zM106.45 11.262c-1.16.32-4.122 8.842-3.542 10.252.515 1.281 3.413 1.153 4.186-.192.579-1.089.644-1.089 1.803 0 1.482 1.281 4.701 1.474 4.701.256 0-.384-.644-2.947-1.482-5.574-1.288-4.229-1.674-4.806-3.027-4.934-.902 0-2.061.064-2.64.192zm1.803 5.831c-.193.641-.322.256-.322-.769 0-1.089.129-1.538.322-1.153.129.448.129 1.346 0 1.922zM115.723 11.326c-.58.192-.837 1.986-.837 5.703v5.382h1.868c1.61 0 1.932-.32 2.189-1.794.257-1.666.257-1.666.772-.32.258.833.902 1.474 1.352 1.474.515 0 1.224-.641 1.546-1.474.515-1.346.58-1.346.58.384.065 1.602.257 1.794 2.061 1.602l1.996-.192.065-5.318c.129-4.934.064-5.318-1.288-5.638-2.061-.513-3.799.705-4.379 3.076l-.451 2.114-.708-2.243c-.902-3.011-2.254-3.78-4.765-2.755zM9.016 11.967c-.193.256-.386 1.089-.386 1.922 0 1.474.064 1.474 7.406 1.474s7.406 0 7.406-1.474c0-2.178-.58-2.435-2.64-1.41-2.318 1.217-7.213 1.217-9.531 0-1.03-.513-1.996-.705-2.254-.513zM7.148 17.669c-1.03 1.089.708 1.538 5.731 1.538h5.409v2.243c0 1.217.322 2.243.644 2.243.386 0 .644-.961.644-2.178 0-2.114.129-2.243 2.576-2.435 1.417-.128 2.576-.513 2.576-.833 0-.705-16.872-1.281-17.581-.577z"/><path fill="#d41443" style="fill:var(--color2,#d41443)" d="M8.629 23.308c0 3.524 1.224 4.229 7.406 4.229s7.406-.705 7.406-4.229c0-1.538-.322-2.178-.966-2.178-.58 0-.966.577-.966 1.538 0 3.588-4.894 3.908-5.603.384-.322-1.858-.515-1.922-3.8-1.922H8.629v2.178zM12.622 30.548c.386 2.05 6.955 1.858 6.955-.128 0-.705-.837-.961-3.606-.961-3.027 0-3.542.192-3.349 1.089z"/></symbol><symbol id="icon-untitled" viewBox="0 0 43 32"><path fill="#e1e1e1" style="fill:var(--color1,#e1e1e1)" d="M32.014 0c1.929 0 3.75.52 5.464 1.561s3.107 2.537 4.179 4.488C42.686 8 43.2 10.298 43.2 12.943s-.643 5.225-1.929 7.74c-.429.911-1.2 2.081-2.314 3.512a63.368 63.368 0 0 1-3.214 3.707L31.693 32 28.8 27.187a22.03 22.03 0 0 0 5.336-4.683c1.543-1.821 2.314-3.491 2.314-5.008 0-.78-.171-1.409-.514-1.886a8.359 8.359 0 0 1-5.014 1.626c-1.329 0-2.593-.412-3.793-1.236a8.555 8.555 0 0 1-2.957-3.122c-.771-1.258-1.157-2.558-1.157-3.902 0-1.518.45-2.97 1.35-4.358a10.222 10.222 0 0 1 3.407-3.382C29.143.412 30.558 0 32.015 0zM8.936 0c1.929 0 3.75.52 5.464 1.561s3.107 2.537 4.179 4.488c1.029 1.951 1.543 4.249 1.543 6.894 0 1.864-.236 3.534-.707 5.008-.471 1.518-1.286 3.1-2.443 4.748-1.114 1.561-2.164 2.862-3.15 3.902-.986 1.084-2.7 2.884-5.143 5.398l-2.893-4.813a22.03 22.03 0 0 0 5.336-4.683c1.543-1.821 2.314-3.491 2.314-5.008 0-.78-.171-1.409-.514-1.886a8.359 8.359 0 0 1-5.014 1.626c-1.329 0-2.593-.412-3.793-1.236a8.555 8.555 0 0 1-2.957-3.122C.387 11.619.001 10.319.001 8.975c0-1.518.429-2.97 1.286-4.358S3.28 2.102 4.694 1.235C6.065.411 7.48-.001 8.937-.001z"/></symbol><symbol id="icon-casa" viewBox="0 0 35 32"><path fill="#d31342" style="fill:var(--color2,#d31342)" d="M32.64 15.401a1.541 1.541 0 0 0-.129-2.225L17.739.426c-.671-.578-1.745-.566-2.402.027L.515 13.856a1.532 1.532 0 0 0-.071 2.222l.372.382c.617.633 1.613.708 2.224.168l1.108-.979v14.326c0 .879.722 1.591 1.612 1.591h5.778c.89 0 1.612-.712 1.612-1.591V19.952h7.37v10.023c-.013.878.624 1.59 1.515 1.59h6.123c.89 0 1.613-.711 1.613-1.59V15.851l.683.592c.377.328 1.168.065 1.767-.586l.42-.455z"/></symbol><symbol id="icon-Vector-2" viewBox="0 0 2880 32"><path fill="none" stroke="#e1e1e1" style="stroke:var(--color1,#e1e1e1)" stroke-width="16" d="M0 16h2880"/></symbol><symbol id="icon-Elipse-1" viewBox="0 0 32 32"><path d="M32 16c0 4.418-1.791 8.418-4.686 11.314S20.419 32 16 32s-8.418-1.791-11.314-4.686C1.791 24.419 0 20.419 0 16S1.791 7.582 4.686 4.686 11.581 0 16 0c4.418 0 8.418 1.791 11.314 4.686S32 11.581 32 16z"/><symbol id="icon-Burger" viewBox="0 0 46 32"><path fill="none" stroke="#d41443" stroke-width="2.286" style="stroke:var(--color1,#d41443)" d="M0 2.286h45.714M0 16h45.714M0 29.714h45.714"/><symbol id="icon-arrow-right" viewBox="0 0 32 32"><path d="m19.414 27.414 10-10a2 2 0 0 0 0-2.828l-10-10a2 2 0 1 0-2.828 2.828L23.172 14H4a2 2 0 1 0 0 4h19.172l-6.586 6.586c-.39.39-.586.902-.586 1.414s.195 1.024.586 1.414a2 2 0 0 0 2.828 0z"/></symbol></symbol><symbol id="icon-canasta-2" viewBox="0 0 35 32"><path fill="#ffa5ba" style="fill:var(--color1,#ffa5ba)" d="M.808.677C.286 1.031 0 1.531 0 2.083c0 .375 5.198 28.208 5.382 28.792.092.323.471.708.87.917C6.631 32 6.897 32 17.6 32s10.969 0 11.348-.208c.399-.208.778-.594.87-.917.184-.583 5.382-28.417 5.382-28.792 0-.552-.286-1.052-.808-1.406l-.348-.24H1.157l-.348.24zm30.35 3.792c-.102.833-.696 2.646-1.136 3.469-2.139 3.958-6.191 6.365-11.215 6.646-3.796.219-7.009-.552-9.7-2.323a11.697 11.697 0 0 1-3.776-4.062c-.512-.906-1.187-2.854-1.289-3.729l-.072-.594h27.26l-.072.594zM7.316 15.198c4.39 2.958 10.949 3.74 16.474 1.948 1.842-.594 3.725-1.594 5.3-2.812.46-.365.491-.365.44-.135-.031.135-.634 3.323-1.34 7.073s-1.3 6.927-1.33 7.052l-.051.24H8.39l-.051-.24c-.031-.125-.624-3.302-1.33-7.052s-1.31-6.938-1.34-7.073c-.051-.229-.02-.229.44.135.266.208.819.594 1.207.865z"/></symbol><symbol id="icon-canasta-frutas" viewBox="0 0 32 32"><path fill="#ffa5ba" style="fill:var(--color1,#ffa5ba)" d="M29.528 21.41c-1.292-.458-2.382-.344-3.242.018.145-.877.47-1.832 1.17-2.481a1.065 1.065 0 0 0-1.449-1.561c-1.229 1.14-1.706 2.748-1.874 4.081a4.036 4.036 0 0 0-1.058-.311l1.89-9.83a1.065 1.065 0 0 0-1.046-1.266h-.204c.094-.5.141-.997.137-1.47-.016-1.994-.903-3.495-2.374-4.017-1.41-.5-2.59-.35-3.507.066.145-.976.494-2.063 1.282-2.794A1.065 1.065 0 0 0 17.804.284c-1.32 1.225-1.815 2.965-1.982 4.386-.735-.348-1.644-.527-2.708-.33-1.094-1.571-2.613-2.296-4.089-1.942-1.451.349-2.358 1.115-2.901 1.962-.41-.899-.712-2.001-.452-3.036A1.065 1.065 0 0 0 3.607.805c-.439 1.746.095 3.476.729 4.758-1.016.137-2.117.65-3.049 1.866-.578.755-.773 1.698-.596 2.7a1.065 1.065 0 0 0-.674 1.197l3.809 19.81c.096.501.535.864 1.046.864h15.237c.511 0 .949-.362 1.046-.864l.037-.195c.287.198.596.363.927.487 1.266.471 2.447.278 3.044.118.316.085.795.179 1.364.179.506 0 1.084-.075 1.68-.297 2.36-.879 3.615-3.839 3.596-6.178-.015-1.904-.866-3.339-2.276-3.839zm-6.951-9.22c-.49 4.705-4.452 7.909-9.971 7.909s-9.481-3.204-9.971-7.91h19.942zm-6.643-4.675a1.047 1.047 0 0 0 1.86 0c.029-.048.29-.466.769-.777.629-.408 1.35-.46 2.203-.157.851.302.952 1.518.956 2.027.004.464-.064.962-.191 1.453h-7.126c.236-1.189.094-2.492-.289-3.669a2.12 2.12 0 0 1 1.047.346c.479.311.74.729.769.777zM2.98 8.724c.55-.719 1.182-1.068 1.932-1.069h.002c.57 0 1.016.208 1.066.232a1.05 1.05 0 0 0 1.079-.037c.331-.211.51-.591.481-.983-.006-.077-.115-1.893 1.983-2.397.876-.211 1.625.754 1.906 1.178.807 1.22 1.221 3.108.777 4.413H2.857c-.141-.443-.179-.943.122-1.336zM5.754 29.87 3.643 18.892c.138.133.281.263.427.389 2.208 1.901 5.239 2.948 8.535 2.948s6.328-1.047 8.535-2.948c.052-.044.102-.09.152-.135l-.431 2.243c-.02.007-.041.013-.061.021-1.41.5-2.261 1.935-2.276 3.839-.009 1.164.297 2.483.898 3.622l-.192.999H5.753zm21.711-.438c-.943.351-1.881.017-1.916.005a1.04 1.04 0 0 0-.768 0c-.009.004-.96.352-1.917-.004-1.338-.498-2.223-2.556-2.21-4.165.004-.466.095-1.578.858-1.849.349-.124.661-.175.939-.175 1.107 0 1.657.812 1.782 1.024a1.047 1.047 0 0 0 1.862 0c.156-.266.977-1.468 2.721-.849.763.271.854 1.383.858 1.849.013 1.609-.872 3.667-2.21 4.165z"/></symbol><symbol id="icon-flecha-how" viewBox="0 0 26 32"><path fill="none" stroke="#d41443" style="stroke:var(--color2,#d41443)" stroke-linejoin="round" stroke-linecap="round" stroke-width="6.4" d="M5.172 3.2 19.341 16 5.172 28.8"/></symbol><symbol id="icon-canasta-1" viewBox="0 0 49 32"><path fill="#ffa5ba" style="fill:var(--color1,#ffa5ba)" d="M2.771.378c-.921.493-1.454 1.48-1.454 2.648.016 2.138.549 4.095 1.616 5.789l.469.773-.889 1.003c-1.002 1.118-1.244 1.53-1.696 2.862-.372 1.086-.404 3.059-.081 4.161 1.131 3.783 4.879 5.97 8.547 5 1.244-.329 2.003-.74 3.167-1.727l.986-.822.921.46a23.2 23.2 0 0 0 1.955.855l1.002.362v1.842c0 2.911.598 4.638 2.133 6.201s3.942 2.368 6.026 2.007c1.486-.263 2.94-1.003 3.926-2.007 1.535-1.563 2.133-3.29 2.133-6.201v-1.842l1.018-.362a25.933 25.933 0 0 0 1.939-.855l.921-.46.986.822c1.163.987 1.923 1.398 3.167 1.727 3.668.97 7.416-1.217 8.547-5 .323-1.102.291-3.076-.081-4.161-.452-1.332-.695-1.743-1.696-2.862l-.889-1.003.469-.773c1.066-1.694 1.599-3.651 1.616-5.789 0-1.168-.533-2.155-1.454-2.648L45.38 0H3.47l-.695.378zm38.776 5.148c0 .049-.469.822-1.05 1.743-1.713 2.714-1.648 3.306.63 5.707.824.872 1.583 1.743 1.697 1.941.614 1.217-.614 2.73-1.971 2.418-.323-.066-1.034-.641-2.068-1.661-2.068-2.039-2.779-2.27-4.362-1.365-1.826 1.053-4.152 2.122-5.283 2.434-1.599.461-2.149.806-2.569 1.678-.339.674-.372.954-.372 3.586 0 3.24-.129 3.767-1.05 4.211-.662.329-.792.329-1.454 0-.921-.444-1.05-.97-1.05-4.211 0-2.632-.032-2.911-.355-3.586-.436-.855-.986-1.217-2.585-1.678-1.389-.395-3.441-1.299-4.572-2.039-1.066-.691-2.003-.954-2.747-.822-.485.099-.969.477-2.262 1.743-1.066 1.036-1.826 1.645-2.149 1.711-1.341.312-2.569-1.217-1.955-2.418.113-.197.872-1.069 1.696-1.941 2.278-2.401 2.343-2.993.63-5.707-.582-.921-1.05-1.694-1.05-1.743 0-.066 7.707-.099 17.126-.099s17.126.033 17.126.099z"/></symbol><symbol id="icon-corazon-1" viewBox="0 0 25 32"><path fill="#ffa5ba" style="fill:var(--color1,#ffa5ba)" d="M12.643 12.585c.188 2.235-.595 5.623 1.8 5.976 1.225.18 2.154-.551 2.361-1.481.193-.871.026-2.732.117-3.315.134-.851 1.171-.499 2.82-.854.833-.179 1.709-.544 2.426-.676-1.105 4.345-5.296 7.171-9.115 8.573-.892.328-1.234.103-2.642-.488-1.812-.762-2.985-1.577-4.391-2.805-1.067-.933-2.299-2.328-3.043-4.06A8.964 8.964 0 0 1 2.283 8.9c.078-.772-.035-1.048.736-.98 4.496.394 5.259 2.98 9.622 4.664zM6.944 4.269c3.302 0 4.574 2.264 5.4 2.273.599.006 1.167-.862 2.369-1.497 2.432-1.285 4.873-1.086 6.569.996.627.769 1.487 2.665 1.158 4.081-1.242 1.01-3.865 1.124-5.625 1.478-2.682.539-1.113 4.086-1.833 5.252-.721.01-.521-.546-.521-2.155.002-4.165-.348-3.043-3.547-4.919-1.201-.704-2.031-1.5-3.335-2.252-1.631-.94-2.306-.896-4.229-1.334.428-.907 1.932-1.924 3.593-1.924zm3.326 17.875v7.316l1.752.003v-6.698l.681.007.006 6.699h1.752v-7.275c.808-.588 3.992-1.57 6.377-4.309.435-.499.77-.876 1.201-1.45a11.031 11.031 0 0 0 2.183-6.002c.286-5.363-3.628-8.789-8.228-7.71-2.18.512-2.733 1.324-3.651 1.749-1.204-.734-1.806-1.339-3.582-1.721-1.694-.365-3.187-.28-4.595.452-6.28 3.265-4.673 14.859 6.105 18.938z"/></symbol><symbol id="icon-canasta-2" viewBox="0 0 35 32"><path fill="#ffa5ba" style="fill:var(--color1,#ffa5ba)" d="M.808.677C.286 1.031 0 1.531 0 2.083c0 .375 5.198 28.208 5.382 28.792.092.323.471.708.87.917C6.631 32 6.897 32 17.6 32s10.969 0 11.348-.208c.399-.208.778-.594.87-.917.184-.583 5.382-28.417 5.382-28.792 0-.552-.286-1.052-.808-1.406l-.348-.24H1.157l-.348.24zm30.35 3.792c-.102.833-.696 2.646-1.136 3.469-2.139 3.958-6.191 6.365-11.215 6.646-3.796.219-7.009-.552-9.7-2.323a11.697 11.697 0 0 1-3.776-4.062c-.512-.906-1.187-2.854-1.289-3.729l-.072-.594h27.26l-.072.594zM7.316 15.198c4.39 2.958 10.949 3.74 16.474 1.948 1.842-.594 3.725-1.594 5.3-2.812.46-.365.491-.365.44-.135-.031.135-.634 3.323-1.34 7.073s-1.3 6.927-1.33 7.052l-.051.24H8.39l-.051-.24c-.031-.125-.624-3.302-1.33-7.052s-1.31-6.938-1.34-7.073c-.051-.229-.02-.229.44.135.266.208.819.594 1.207.865z"/></symbol><symbol id="icon-canasta-frutas" viewBox="0 0 32 32"><path fill="#ffa5ba" style="fill:var(--color1,#ffa5ba)" d="M29.528 21.41c-1.292-.458-2.382-.344-3.242.018.145-.877.47-1.832 1.17-2.481a1.065 1.065 0 0 0-1.449-1.561c-1.229 1.14-1.706 2.748-1.874 4.081a4.036 4.036 0 0 0-1.058-.311l1.89-9.83a1.065 1.065 0 0 0-1.046-1.266h-.204c.094-.5.141-.997.137-1.47-.016-1.994-.903-3.495-2.374-4.017-1.41-.5-2.59-.35-3.507.066.145-.976.494-2.063 1.282-2.794A1.065 1.065 0 0 0 17.804.284c-1.32 1.225-1.815 2.965-1.982 4.386-.735-.348-1.644-.527-2.708-.33-1.094-1.571-2.613-2.296-4.089-1.942-1.451.349-2.358 1.115-2.901 1.962-.41-.899-.712-2.001-.452-3.036A1.065 1.065 0 0 0 3.607.805c-.439 1.746.095 3.476.729 4.758-1.016.137-2.117.65-3.049 1.866-.578.755-.773 1.698-.596 2.7a1.065 1.065 0 0 0-.674 1.197l3.809 19.81c.096.501.535.864 1.046.864h15.237c.511 0 .949-.362 1.046-.864l.037-.195c.287.198.596.363.927.487 1.266.471 2.447.278 3.044.118.316.085.795.179 1.364.179.506 0 1.084-.075 1.68-.297 2.36-.879 3.615-3.839 3.596-6.178-.015-1.904-.866-3.339-2.276-3.839zm-6.951-9.22c-.49 4.705-4.452 7.909-9.971 7.909s-9.481-3.204-9.971-7.91h19.942zm-6.643-4.675a1.047 1.047 0 0 0 1.86 0c.029-.048.29-.466.769-.777.629-.408 1.35-.46 2.203-.157.851.302.952 1.518.956 2.027.004.464-.064.962-.191 1.453h-7.126c.236-1.189.094-2.492-.289-3.669a2.12 2.12 0 0 1 1.047.346c.479.311.74.729.769.777zM2.98 8.724c.55-.719 1.182-1.068 1.932-1.069h.002c.57 0 1.016.208 1.066.232a1.05 1.05 0 0 0 1.079-.037c.331-.211.51-.591.481-.983-.006-.077-.115-1.893 1.983-2.397.876-.211 1.625.754 1.906 1.178.807 1.22 1.221 3.108.777 4.413H2.857c-.141-.443-.179-.943.122-1.336zM5.754 29.87 3.643 18.892c.138.133.281.263.427.389 2.208 1.901 5.239 2.948 8.535 2.948s6.328-1.047 8.535-2.948c.052-.044.102-.09.152-.135l-.431 2.243c-.02.007-.041.013-.061.021-1.41.5-2.261 1.935-2.276 3.839-.009 1.164.297 2.483.898 3.622l-.192.999H5.753zm21.711-.438c-.943.351-1.881.017-1.916.005a1.04 1.04 0 0 0-.768 0c-.009.004-.96.352-1.917-.004-1.338-.498-2.223-2.556-2.21-4.165.004-.466.095-1.578.858-1.849.349-.124.661-.175.939-.175 1.107 0 1.657.812 1.782 1.024a1.047 1.047 0 0 0 1.862 0c.156-.266.977-1.468 2.721-.849.763.271.854 1.383.858 1.849.013 1.609-.872 3.667-2.21 4.165z"/></symbol><symbol id="icon-flecha-how" viewBox="0 0 26 32"><path fill="none" stroke="#d41443" style="stroke:var(--color2,#d41443)" stroke-linejoin="round" stroke-linecap="round" stroke-width="6.4" d="M5.172 3.2 19.341 16 5.172 28.8"/></symbol><symbol id="icon-canasta-1" viewBox="0 0 49 32"><path fill="#ffa5ba" style="fill:var(--color1,#ffa5ba)" d="M2.771.378c-.921.493-1.454 1.48-1.454 2.648.016 2.138.549 4.095 1.616 5.789l.469.773-.889 1.003c-1.002 1.118-1.244 1.53-1.696 2.862-.372 1.086-.404 3.059-.081 4.161 1.131 3.783 4.879 5.97 8.547 5 1.244-.329 2.003-.74 3.167-1.727l.986-.822.921.46a23.2 23.2 0 0 0 1.955.855l1.002.362v1.842c0 2.911.598 4.638 2.133 6.201s3.942 2.368 6.026 2.007c1.486-.263 2.94-1.003 3.926-2.007 1.535-1.563 2.133-3.29 2.133-6.201v-1.842l1.018-.362a25.933 25.933 0 0 0 1.939-.855l.921-.46.986.822c1.163.987 1.923 1.398 3.167 1.727 3.668.97 7.416-1.217 8.547-5 .323-1.102.291-3.076-.081-4.161-.452-1.332-.695-1.743-1.696-2.862l-.889-1.003.469-.773c1.066-1.694 1.599-3.651 1.616-5.789 0-1.168-.533-2.155-1.454-2.648L45.38 0H3.47l-.695.378zm38.776 5.148c0 .049-.469.822-1.05 1.743-1.713 2.714-1.648 3.306.63 5.707.824.872 1.583 1.743 1.697 1.941.614 1.217-.614 2.73-1.971 2.418-.323-.066-1.034-.641-2.068-1.661-2.068-2.039-2.779-2.27-4.362-1.365-1.826 1.053-4.152 2.122-5.283 2.434-1.599.461-2.149.806-2.569 1.678-.339.674-.372.954-.372 3.586 0 3.24-.129 3.767-1.05 4.211-.662.329-.792.329-1.454 0-.921-.444-1.05-.97-1.05-4.211 0-2.632-.032-2.911-.355-3.586-.436-.855-.986-1.217-2.585-1.678-1.389-.395-3.441-1.299-4.572-2.039-1.066-.691-2.003-.954-2.747-.822-.485.099-.969.477-2.262 1.743-1.066 1.036-1.826 1.645-2.149 1.711-1.341.312-2.569-1.217-1.955-2.418.113-.197.872-1.069 1.696-1.941 2.278-2.401 2.343-2.993.63-5.707-.582-.921-1.05-1.694-1.05-1.743 0-.066 7.707-.099 17.126-.099s17.126.033 17.126.099z"/></symbol><symbol id="icon-corazon-1" viewBox="0 0 25 32"><path fill="#ffa5ba" style="fill:var(--color1,#ffa5ba)" d="M12.643 12.585c.188 2.235-.595 5.623 1.8 5.976 1.225.18 2.154-.551 2.361-1.481.193-.871.026-2.732.117-3.315.134-.851 1.171-.499 2.82-.854.833-.179 1.709-.544 2.426-.676-1.105 4.345-5.296 7.171-9.115 8.573-.892.328-1.234.103-2.642-.488-1.812-.762-2.985-1.577-4.391-2.805-1.067-.933-2.299-2.328-3.043-4.06A8.964 8.964 0 0 1 2.283 8.9c.078-.772-.035-1.048.736-.98 4.496.394 5.259 2.98 9.622 4.664zM6.944 4.269c3.302 0 4.574 2.264 5.4 2.273.599.006 1.167-.862 2.369-1.497 2.432-1.285 4.873-1.086 6.569.996.627.769 1.487 2.665 1.158 4.081-1.242 1.01-3.865 1.124-5.625 1.478-2.682.539-1.113 4.086-1.833 5.252-.721.01-.521-.546-.521-2.155.002-4.165-.348-3.043-3.547-4.919-1.201-.704-2.031-1.5-3.335-2.252-1.631-.94-2.306-.896-4.229-1.334.428-.907 1.932-1.924 3.593-1.924zm3.326 17.875v7.316l1.752.003v-6.698l.681.007.006 6.699h1.752v-7.275c.808-.588 3.992-1.57 6.377-4.309.435-.499.77-.876 1.201-1.45a11.031 11.031 0 0 0 2.183-6.002c.286-5.363-3.628-8.789-8.228-7.71-2.18.512-2.733 1.324-3.651 1.749-1.204-.734-1.806-1.339-3.582-1.721-1.694-.365-3.187-.28-4.595.452-6.28 3.265-4.673 14.859 6.105 18.938z"/></symbol><symbol id="icon-mayor" viewBox="0 0 22 32"><path stroke-linejoin="round" stroke-linecap="round" stroke-width="6.4" d="M3.321 3.2 18.295 16 3.321 28.8"/></symbol><symbol id="icon-close" viewBox="0 0 32 32"><path fill="none" stroke="#fff" style="stroke:var(--color1,#fff)" stroke-width="2" d="m2.518 2 26.963 28M2 29.481 30 2.518"/></symbol><symbol id="icon-telegram" viewBox="0 0 40 32"><path fill="#fff" style="fill:var(--color1,#fff)" d="m16.205 20.751-.635 8.339c.909 0 1.302-.364 1.774-.802l4.261-3.801 8.829 6.035c1.619.842 2.76.399 3.197-1.39l5.797-25.346c.514-2.234-.866-3.108-2.443-2.56L2.92 13.398c-2.325.842-2.29 2.052-.395 2.6l8.709 2.528L31.463 6.712c.952-.588 1.818-.263 1.106.326L16.205 20.751z"/></symbol><symbol id="icon-facebook" viewBox="0 0 16 32"><path fill="#fff" style="fill:var(--color1,#fff)" d="M14.266 15.97H10.09v15.39H3.763V15.97H.754v-5.409h3.009v-3.5c0-2.503 1.182-6.422 6.384-6.422l4.687.02v5.25h-3.401c-.558 0-1.342.28-1.342 1.474v3.183h4.729l-.553 5.403z"/></symbol><symbol id="icon-github" viewBox="0 0 32 32"><path fill="#fff" style="fill:var(--color1,#fff)" d="M16 .941C7.729.941.941 7.729.941 16c0 7.058 4.953 13.47 11.529 15.059v-4.982c-.652.143-1.251.147-1.915-.049-.89-.263-1.613-.855-2.15-1.759-.342-.577-.949-1.203-1.581-1.157l-.155-1.758c1.368-.117 2.551.833 3.254 2.014.312.525.671.832 1.132.968.446.131.924.068 1.481-.129.14-1.116.651-1.534 1.037-2.122v-.001c-3.922-.585-5.486-2.666-6.106-4.308-.822-2.181-.381-4.905 1.073-6.627.028-.034.079-.121.059-.183-.667-2.014.146-3.679.176-3.856.769.228.894-.229 3.342 1.258l.423.254c.177.105.121.045.298.032a12.77 12.77 0 0 1 3.16-.445 12.84 12.84 0 0 1 3.204.456l.137.014c-.012-.002.037-.009.12-.058 3.057-1.852 2.947-1.247 3.767-1.513.03.177.831 1.87.172 3.858-.089.274 2.65 2.782 1.132 6.809-.62 1.643-2.183 3.724-6.106 4.309v.001c.503.766 1.107 1.174 1.104 2.755v6.219C26.105 29.47 31.057 23.058 31.057 16 31.057 7.729 24.27.941 15.998.941z"/></symbol></symbol></defs></svg>