<svg aria-hidden="true" style="position: absolute; width: 0; height: 0; overflow: hidden;" version="1.1" xmlns="http://www.w3.org/2000/svg" xmlns:xlink="http://www.w3.org/1999/xlink">
<defs>
<symbol id="icon-icecream" viewBox="0 0 127 32">
<path fill="#fff" style="fill: var(--color1, #fff)" d="M31.36 16.32c0 8.66-6.877 15.68-15.36 15.68s-15.36-7.020-15.36-15.68c0-8.66 6.877-15.68 15.36-15.68s15.36 7.020 15.36 15.68z"></path>
<path fill="#d41443" style="fill: var(--color2, #d41443)" d="M11.849 0.562c-7.406 2.243-11.849 8.073-11.849 15.442 0 6.023 3.091 11.277 8.179 13.904 2.64 1.346 3.027 0.384 0.58-1.474-1.739-1.41-2.061-2.050-2.061-4.421 0-1.666-0.386-3.011-0.966-3.524-1.159-0.961-1.288-3.46-0.129-4.357 0.451-0.384 0.902-1.666 0.966-2.819 0.322-4.229 4.894-8.201 9.467-8.201s9.145 3.973 9.466 8.201c0.064 1.153 0.515 2.435 0.966 2.819 1.159 0.897 1.030 3.396-0.129 4.357-0.58 0.513-0.966 1.858-0.966 3.524 0 2.371-0.322 3.011-2.061 4.421-2.705 2.114-1.932 2.883 1.095 1.025 4.25-2.627 7.406-8.33 7.406-13.391 0-10.124-10.561-18.325-19.963-15.506z"></path>
<path fill="#d41443" style="fill: var(--color2, #d41443)" d="M12.686 7.994c-1.159 0.513-2.125 1.153-2.125 1.538 0 0.705 3.477 1.986 5.474 1.986s5.474-1.281 5.474-1.986c0-0.769-3.993-2.499-5.603-2.499-0.644 0.064-2.125 0.449-3.22 0.961z"></path>
<path fill="#d41443" style="fill: var(--color2, #d41443)" d="M45.851 11.326c-0.966 0.256-1.159 1.089-1.159 5.703v5.382h4.572l-0.193-5.574c-0.193-5.831-0.451-6.279-3.22-5.51z"></path>
<path fill="#d41443" style="fill: var(--color2, #d41443)" d="M53.386 11.646c-2.125 1.153-2.898 2.563-2.898 5.318 0 3.78 2.061 5.574 5.86 5.318 2.576-0.192 2.833-0.384 3.027-1.986s0.064-1.73-1.932-1.602c-2.061 0.192-2.125 0.064-2.125-2.050s0.129-2.243 1.996-2.050c1.546 0.128 2.125-0.128 2.383-1.089 0.129-0.641 0-1.538-0.386-1.922-0.902-0.897-4.25-0.897-5.925 0.064z"></path>
<path fill="#d41443" style="fill: var(--color2, #d41443)" d="M61.049 11.71c-0.193 0.513-0.258 3.011-0.129 5.638l0.193 4.741h4.186c3.864 0 4.186-0.128 4.379-1.474 0.193-1.217-0.064-1.41-2.060-1.41-1.288 0-2.319-0.32-2.319-0.641 0-0.384 0.902-0.641 1.932-0.641 1.481 0 1.932-0.256 1.932-1.281s-0.451-1.281-1.932-1.281c-1.030 0-1.932-0.32-1.932-0.641 0-0.384 0.837-0.641 1.868-0.641 1.804 0 3.027-1.41 2.254-2.627-0.58-0.961-7.985-0.705-8.372 0.256z"></path>
<path fill="#d41443" style="fill: var(--color2, #d41443)" d="M73.993 11.518c-2.125 0.833-2.962 2.307-3.027 4.998-0.065 4.613 1.803 6.215 6.633 5.767 1.868-0.128 2.189-0.448 2.189-1.794 0-1.41-0.257-1.602-2.061-1.41-1.546 0.128-2.125-0.064-2.447-1.089-0.58-1.986 0.644-3.588 2.705-3.588 1.224 0 1.868-0.384 1.996-1.217 0.451-2.050-2.833-3.011-5.989-1.666z"></path>
<path fill="#d41443" style="fill: var(--color2, #d41443)" d="M81.914 11.262c-0.323 0.256-0.515 2.883-0.515 5.831v5.382l2.060-0.192c1.61-0.128 2.19-0.577 2.512-1.794l0.386-1.602 0.515 1.73c0.387 1.474 0.837 1.794 2.512 1.794 2.769 0 3.091-0.448 1.932-2.691-0.708-1.41-0.837-2.114-0.322-2.627 0.837-0.833 0.902-3.652 0.129-4.87-0.644-1.025-8.371-1.858-9.208-0.961zM87.194 14.722c0 0.705-0.257 1.281-0.644 1.281-0.322 0-0.644-0.577-0.644-1.281s0.322-1.281 0.644-1.281c0.387 0 0.644 0.577 0.644 1.281z"></path>
<path fill="#d41443" style="fill: var(--color2, #d41443)" d="M93.441 11.326c-0.258 0.192-0.451 2.819-0.451 5.767v5.318h4.186c4.057 0 4.186-0.064 4.186-1.602 0-1.346-0.322-1.602-1.932-1.602-1.030 0-1.932-0.32-1.932-0.641 0-0.384 0.708-0.641 1.61-0.641 1.159 0 1.61-0.32 1.61-1.281s-0.451-1.281-1.61-1.281c-0.902 0-1.61-0.32-1.61-0.641 0-0.384 0.902-0.641 1.932-0.641 1.61 0 1.932-0.256 1.932-1.602 0-1.538-0.193-1.602-3.735-1.602-2.061 0-3.992 0.192-4.186 0.448z"></path>
<path fill="#d41443" style="fill: var(--color2, #d41443)" d="M106.45 11.262c-1.16 0.32-4.122 8.842-3.542 10.252 0.515 1.281 3.413 1.153 4.186-0.192 0.579-1.089 0.644-1.089 1.803 0 1.482 1.281 4.701 1.474 4.701 0.256 0-0.384-0.644-2.947-1.482-5.574-1.288-4.229-1.674-4.806-3.027-4.934-0.902 0-2.061 0.064-2.64 0.192zM108.253 17.093c-0.193 0.641-0.322 0.256-0.322-0.769 0-1.089 0.129-1.538 0.322-1.153 0.129 0.448 0.129 1.346 0 1.922z"></path>
<path fill="#d41443" style="fill: var(--color2, #d41443)" d="M115.723 11.326c-0.58 0.192-0.837 1.986-0.837 5.703v5.382h1.868c1.61 0 1.932-0.32 2.189-1.794 0.257-1.666 0.257-1.666 0.772-0.32 0.258 0.833 0.902 1.474 1.352 1.474 0.515 0 1.224-0.641 1.546-1.474 0.515-1.346 0.58-1.346 0.58 0.384 0.065 1.602 0.257 1.794 2.061 1.602l1.996-0.192 0.065-5.318c0.129-4.934 0.064-5.318-1.288-5.638-2.061-0.513-3.799 0.705-4.379 3.076l-0.451 2.114-0.708-2.243c-0.902-3.011-2.254-3.78-4.765-2.755z"></path>
<path fill="#d41443" style="fill: var(--color2, #d41443)" d="M9.016 11.967c-0.193 0.256-0.386 1.089-0.386 1.922 0 1.474 0.064 1.474 7.406 1.474s7.406 0 7.406-1.474c0-2.178-0.58-2.435-2.64-1.41-2.318 1.217-7.213 1.217-9.531 0-1.030-0.513-1.996-0.705-2.254-0.513z"></path>
<path fill="#d41443" style="fill: var(--color2, #d41443)" d="M7.148 17.669c-1.030 1.089 0.708 1.538 5.731 1.538h5.409v2.243c0 1.217 0.322 2.243 0.644 2.243 0.386 0 0.644-0.961 0.644-2.178 0-2.114 0.129-2.243 2.576-2.435 1.417-0.128 2.576-0.513 2.576-0.833 0-0.705-16.872-1.281-17.581-0.577z"></path>
<path fill="#d41443" style="fill: var(--color2, #d41443)" d="M8.629 23.308c0 3.524 1.224 4.229 7.406 4.229s7.406-0.705 7.406-4.229c0-1.538-0.322-2.178-0.966-2.178-0.58 0-0.966 0.577-0.966 1.538 0 3.588-4.894 3.908-5.603 0.384-0.322-1.858-0.515-1.922-3.8-1.922h-3.477v2.178z"></path>
<path fill="#d41443" style="fill: var(--color2, #d41443)" d="M12.622 30.548c0.386 2.050 6.955 1.858 6.955-0.128 0-0.705-0.837-0.961-3.606-0.961-3.027 0-3.542 0.192-3.349 1.089z"></path>
</symbol>
<symbol id="icon-untitled" viewBox="0 0 43 32">
<path fill="#e1e1e1" style="fill: var(--color1, #e1e1e1)" d="M32.014 0c1.929 0 3.75 0.52 5.464 1.561s3.107 2.537 4.179 4.488c1.029 1.951 1.543 4.249 1.543 6.894s-0.643 5.225-1.929 7.74c-0.429 0.911-1.2 2.081-2.314 3.512-1.157 1.431-2.229 2.667-3.214 3.707l-4.050 4.098-2.893-4.813c2.014-1.257 3.793-2.818 5.336-4.683 1.543-1.821 2.314-3.491 2.314-5.008 0-0.78-0.171-1.409-0.514-1.886-1.5 1.084-3.171 1.626-5.014 1.626-1.329 0-2.593-0.412-3.793-1.236-1.243-0.78-2.229-1.821-2.957-3.122-0.771-1.258-1.157-2.558-1.157-3.902 0-1.518 0.45-2.97 1.35-4.358 0.857-1.388 1.993-2.515 3.407-3.382 1.371-0.824 2.786-1.236 4.243-1.236zM8.936 0c1.929 0 3.75 0.52 5.464 1.561s3.107 2.537 4.179 4.488c1.029 1.951 1.543 4.249 1.543 6.894 0 1.864-0.236 3.534-0.707 5.008-0.471 1.518-1.286 3.1-2.443 4.748-1.114 1.561-2.164 2.862-3.15 3.902-0.986 1.084-2.7 2.884-5.143 5.398l-2.893-4.813c2.014-1.257 3.793-2.818 5.336-4.683 1.543-1.821 2.314-3.491 2.314-5.008 0-0.78-0.171-1.409-0.514-1.886-1.5 1.084-3.171 1.626-5.014 1.626-1.329 0-2.593-0.412-3.793-1.236-1.243-0.78-2.229-1.821-2.957-3.122-0.771-1.258-1.157-2.558-1.157-3.902 0-1.518 0.429-2.97 1.286-4.358s1.993-2.515 3.407-3.382c1.371-0.824 2.786-1.236 4.243-1.236z"></path>
</symbol>
<symbol id="icon-casa" viewBox="0 0 35 32">
<path fill="#d31342" style="fill: var(--color2, #d31342)" d="M32.64 15.401c0.599-0.65 0.541-1.646-0.129-2.225l-14.772-12.75c-0.671-0.578-1.745-0.566-2.402 0.027l-14.822 13.403c-0.656 0.594-0.689 1.589-0.071 2.222l0.372 0.382c0.617 0.633 1.613 0.708 2.224 0.168l1.108-0.979v14.326c0 0.879 0.722 1.591 1.612 1.591h5.778c0.89 0 1.612-0.712 1.612-1.591v-10.023h7.37v10.023c-0.013 0.878 0.624 1.59 1.515 1.59h6.123c0.89 0 1.613-0.711 1.613-1.59v-14.124c0 0 0.306 0.264 0.683 0.592s1.168 0.065 1.767-0.586l0.42-0.455z"></path>
</symbol>
<symbol id="icon-Vector-2" viewBox="0 0 2880 32">
<path fill="none" stroke="#e1e1e1" style="stroke: var(--color1, #e1e1e1)" stroke-linejoin="miter" stroke-linecap="butt" stroke-miterlimit="4" stroke-width="16" d="M0 16h2880"></path>
</symbol>
<symbol id="icon-Elipse-1" viewBox="0 0 32 32">
<path d="M32 16c0 4.418-1.791 8.418-4.686 11.314s-6.895 4.686-11.314 4.686-8.418-1.791-11.314-4.686c-2.895-2.895-4.686-6.895-4.686-11.314s1.791-8.418 4.686-11.314 6.895-4.686 11.314-4.686c4.418 0 8.418 1.791 11.314 4.686s4.686 6.895 4.686 11.314z"></path>
</symbol>
<symbol id="icon-canasta-2" viewBox="0 0 35 32">
<path fill="#ffa5ba" style="fill: var(--color1, #ffa5ba)" d="M0.808 0.677c-0.522 0.354-0.808 0.854-0.808 1.406 0 0.375 5.198 28.208 5.382 28.792 0.092 0.323 0.471 0.708 0.87 0.917 0.379 0.208 0.645 0.208 11.348 0.208s10.969 0 11.348-0.208c0.399-0.208 0.778-0.594 0.87-0.917 0.184-0.583 5.382-28.417 5.382-28.792 0-0.552-0.286-1.052-0.808-1.406l-0.348-0.24h-32.887l-0.348 0.24zM31.158 4.469c-0.102 0.833-0.696 2.646-1.136 3.469-2.139 3.958-6.191 6.365-11.215 6.646-3.796 0.219-7.009-0.552-9.7-2.323-1.555-1.021-2.855-2.417-3.776-4.062-0.512-0.906-1.187-2.854-1.289-3.729l-0.072-0.594h27.26l-0.072 0.594zM7.316 15.198c4.39 2.958 10.949 3.74 16.474 1.948 1.842-0.594 3.725-1.594 5.3-2.812 0.46-0.365 0.491-0.365 0.44-0.135-0.031 0.135-0.634 3.323-1.34 7.073s-1.3 6.927-1.33 7.052l-0.051 0.24h-18.419l-0.051-0.24c-0.031-0.125-0.624-3.302-1.33-7.052s-1.31-6.938-1.34-7.073c-0.051-0.229-0.020-0.229 0.44 0.135 0.266 0.208 0.819 0.594 1.207 0.865z"></path>
</symbol>
<symbol id="icon-canasta-frutas" viewBox="0 0 32 32">
<path fill="#ffa5ba" style="fill: var(--color1, #ffa5ba)" d="M29.528 21.41c-1.292-0.458-2.382-0.344-3.242 0.018 0.145-0.877 0.47-1.832 1.17-2.481 0.431-0.4 0.456-1.074 0.056-1.505s-1.074-0.456-1.505-0.056c-1.229 1.14-1.706 2.748-1.874 4.081-0.32-0.144-0.673-0.253-1.058-0.311l1.89-9.83c0.060-0.312-0.022-0.634-0.225-0.879s-0.503-0.387-0.821-0.387h-0.204c0.094-0.5 0.141-0.997 0.137-1.47-0.016-1.994-0.903-3.495-2.374-4.017-1.41-0.5-2.59-0.35-3.507 0.066 0.145-0.976 0.494-2.063 1.282-2.794 0.431-0.4 0.456-1.074 0.056-1.505s-1.074-0.456-1.505-0.056c-1.32 1.225-1.815 2.965-1.982 4.386-0.735-0.348-1.644-0.527-2.708-0.33-1.094-1.571-2.613-2.296-4.089-1.942-1.451 0.349-2.358 1.115-2.901 1.962-0.41-0.899-0.712-2.001-0.452-3.036 0.143-0.57-0.203-1.149-0.773-1.292s-1.149 0.203-1.292 0.773c-0.439 1.746 0.095 3.476 0.729 4.758-1.016 0.137-2.117 0.65-3.049 1.866-0.578 0.755-0.773 1.698-0.596 2.7-0.173 0.065-0.329 0.173-0.449 0.318-0.202 0.245-0.285 0.567-0.225 0.879l3.809 19.81c0.096 0.501 0.535 0.864 1.046 0.864h15.237c0.511 0 0.949-0.362 1.046-0.864l0.037-0.195c0.287 0.198 0.596 0.363 0.927 0.487 1.266 0.471 2.447 0.278 3.044 0.118 0.316 0.085 0.795 0.179 1.364 0.179 0.506 0 1.084-0.075 1.68-0.297 2.36-0.879 3.615-3.839 3.596-6.178-0.015-1.904-0.866-3.339-2.276-3.839zM22.577 12.19c-0.49 4.705-4.452 7.909-9.971 7.909s-9.481-3.204-9.971-7.91h19.942zM15.934 7.515c0.184 0.349 0.536 0.567 0.93 0.567s0.746-0.218 0.93-0.567c0.029-0.048 0.29-0.466 0.769-0.777 0.629-0.408 1.35-0.46 2.203-0.157 0.851 0.302 0.952 1.518 0.956 2.027 0.004 0.464-0.064 0.962-0.191 1.453h-7.126c0.236-1.189 0.094-2.492-0.289-3.669 0.377 0.022 0.724 0.137 1.047 0.346 0.479 0.311 0.74 0.729 0.769 0.777zM2.98 8.724c0.55-0.719 1.182-1.068 1.932-1.069h0.002c0.57 0 1.016 0.208 1.066 0.232 0.341 0.189 0.749 0.172 1.079-0.037 0.331-0.211 0.51-0.591 0.481-0.983-0.006-0.077-0.115-1.893 1.983-2.397 0.876-0.211 1.625 0.754 1.906 1.178 0.807 1.22 1.221 3.108 0.777 4.413h-9.349c-0.141-0.443-0.179-0.943 0.122-1.336zM5.754 29.87l-2.111-10.978c0.138 0.133 0.281 0.263 0.427 0.389 2.208 1.901 5.239 2.948 8.535 2.948s6.328-1.047 8.535-2.948c0.052-0.044 0.102-0.090 0.152-0.135l-0.431 2.243c-0.020 0.007-0.041 0.013-0.061 0.021-1.41 0.5-2.261 1.935-2.276 3.839-0.009 1.164 0.297 2.483 0.898 3.622l-0.192 0.999h-13.477zM27.465 29.432c-0.943 0.351-1.881 0.017-1.916 0.005-0.25-0.097-0.518-0.099-0.768-0-0.009 0.004-0.96 0.352-1.917-0.004-1.338-0.498-2.223-2.556-2.21-4.165 0.004-0.466 0.095-1.578 0.858-1.849 0.349-0.124 0.661-0.175 0.939-0.175 1.107 0 1.657 0.812 1.782 1.024 0.184 0.35 0.535 0.569 0.931 0.569s0.747-0.219 0.931-0.569c0.156-0.266 0.977-1.468 2.721-0.849 0.763 0.271 0.854 1.383 0.858 1.849 0.013 1.609-0.872 3.667-2.21 4.165z"></path>
</symbol>
<symbol id="icon-flecha-how" viewBox="0 0 26 32">
<path fill="none" stroke="#d41443" style="stroke: var(--color2, #d41443)" stroke-linejoin="round" stroke-linecap="round" stroke-miterlimit="4" stroke-width="6.4" d="M5.172 3.2l14.169 12.8-14.169 12.8"></path>
</symbol>
<symbol id="icon-canasta-1" viewBox="0 0 49 32">
<path fill="#ffa5ba" style="fill: var(--color1, #ffa5ba)" d="M2.771 0.378c-0.921 0.493-1.454 1.48-1.454 2.648 0.016 2.138 0.549 4.095 1.616 5.789l0.469 0.773-0.889 1.003c-1.002 1.118-1.244 1.53-1.696 2.862-0.372 1.086-0.404 3.059-0.081 4.161 1.131 3.783 4.879 5.97 8.547 5 1.244-0.329 2.003-0.74 3.167-1.727l0.986-0.822 0.921 0.46c0.517 0.263 1.389 0.642 1.955 0.855l1.002 0.362v1.842c0 2.911 0.598 4.638 2.133 6.201s3.942 2.368 6.026 2.007c1.486-0.263 2.94-1.003 3.926-2.007 1.535-1.563 2.133-3.29 2.133-6.201v-1.842l1.018-0.362c0.549-0.214 1.422-0.592 1.939-0.855l0.921-0.46 0.986 0.822c1.163 0.987 1.923 1.398 3.167 1.727 3.668 0.97 7.416-1.217 8.547-5 0.323-1.102 0.291-3.076-0.081-4.161-0.452-1.332-0.695-1.743-1.696-2.862l-0.889-1.003 0.469-0.773c1.066-1.694 1.599-3.651 1.616-5.789 0-1.168-0.533-2.155-1.454-2.648l-0.695-0.378h-41.91l-0.695 0.378zM41.547 5.526c0 0.049-0.469 0.822-1.050 1.743-1.713 2.714-1.648 3.306 0.63 5.707 0.824 0.872 1.583 1.743 1.697 1.941 0.614 1.217-0.614 2.73-1.971 2.418-0.323-0.066-1.034-0.641-2.068-1.661-2.068-2.039-2.779-2.27-4.362-1.365-1.826 1.053-4.152 2.122-5.283 2.434-1.599 0.461-2.149 0.806-2.569 1.678-0.339 0.674-0.372 0.954-0.372 3.586 0 3.24-0.129 3.767-1.050 4.211-0.662 0.329-0.792 0.329-1.454 0-0.921-0.444-1.050-0.97-1.050-4.211 0-2.632-0.032-2.911-0.355-3.586-0.436-0.855-0.986-1.217-2.585-1.678-1.389-0.395-3.441-1.299-4.572-2.039-1.066-0.691-2.003-0.954-2.747-0.822-0.485 0.099-0.969 0.477-2.262 1.743-1.066 1.036-1.826 1.645-2.149 1.711-1.341 0.312-2.569-1.217-1.955-2.418 0.113-0.197 0.872-1.069 1.696-1.941 2.278-2.401 2.343-2.993 0.63-5.707-0.582-0.921-1.050-1.694-1.050-1.743 0-0.066 7.707-0.099 17.126-0.099s17.126 0.033 17.126 0.099z"></path>
</symbol>
<symbol id="icon-corazon-1" viewBox="0 0 25 32">
<path  fill="#ffa5ba" style="fill: var(--color1, #ffa5ba)" d="M12.643 12.585c0.188 2.235-0.595 5.623 1.8 5.976 1.225 0.18 2.154-0.551 2.361-1.481 0.193-0.871 0.026-2.732 0.117-3.315 0.134-0.851 1.171-0.499 2.82-0.854 0.833-0.179 1.709-0.544 2.426-0.676-1.105 4.345-5.296 7.171-9.115 8.573-0.892 0.328-1.234 0.103-2.642-0.488-1.812-0.762-2.985-1.577-4.391-2.805-1.067-0.933-2.299-2.328-3.043-4.060-0.629-1.465-0.855-2.951-0.693-4.555 0.078-0.772-0.035-1.048 0.736-0.98 4.496 0.394 5.259 2.98 9.622 4.664zM6.944 4.269c3.302 0 4.574 2.264 5.4 2.273 0.599 0.006 1.167-0.862 2.369-1.497 2.432-1.285 4.873-1.086 6.569 0.996 0.627 0.769 1.487 2.665 1.158 4.081-1.242 1.010-3.865 1.124-5.625 1.478-2.682 0.539-1.113 4.086-1.833 5.252-0.721 0.010-0.521-0.546-0.521-2.155 0.002-4.165-0.348-3.043-3.547-4.919-1.201-0.704-2.031-1.5-3.335-2.252-1.631-0.94-2.306-0.896-4.229-1.334 0.428-0.907 1.932-1.924 3.593-1.924zM10.27 22.144v7.316l1.752 0.003-0-6.698 0.681 0.007 0.006 6.699h1.752v-7.275c0.808-0.588 3.992-1.57 6.377-4.309 0.435-0.499 0.77-0.876 1.201-1.45 1.253-1.665 2.064-3.771 2.183-6.002 0.286-5.363-3.628-8.789-8.228-7.71-2.18 0.512-2.733 1.324-3.651 1.749-1.204-0.734-1.806-1.339-3.582-1.721-1.694-0.365-3.187-0.28-4.595 0.452-6.28 3.265-4.673 14.859 6.105 18.938z"></path>
</symbol>
<symbol id="icon-canasta-2" viewBox="0 0 35 32">
<path fill="#ffa5ba" style="fill: var(--color1, #ffa5ba)" d="M0.808 0.677c-0.522 0.354-0.808 0.854-0.808 1.406 0 0.375 5.198 28.208 5.382 28.792 0.092 0.323 0.471 0.708 0.87 0.917 0.379 0.208 0.645 0.208 11.348 0.208s10.969 0 11.348-0.208c0.399-0.208 0.778-0.594 0.87-0.917 0.184-0.583 5.382-28.417 5.382-28.792 0-0.552-0.286-1.052-0.808-1.406l-0.348-0.24h-32.887l-0.348 0.24zM31.158 4.469c-0.102 0.833-0.696 2.646-1.136 3.469-2.139 3.958-6.191 6.365-11.215 6.646-3.796 0.219-7.009-0.552-9.7-2.323-1.555-1.021-2.855-2.417-3.776-4.062-0.512-0.906-1.187-2.854-1.289-3.729l-0.072-0.594h27.26l-0.072 0.594zM7.316 15.198c4.39 2.958 10.949 3.74 16.474 1.948 1.842-0.594 3.725-1.594 5.3-2.812 0.46-0.365 0.491-0.365 0.44-0.135-0.031 0.135-0.634 3.323-1.34 7.073s-1.3 6.927-1.33 7.052l-0.051 0.24h-18.419l-0.051-0.24c-0.031-0.125-0.624-3.302-1.33-7.052s-1.31-6.938-1.34-7.073c-0.051-0.229-0.020-0.229 0.44 0.135 0.266 0.208 0.819 0.594 1.207 0.865z"></path>
</symbol>
<symbol id="icon-canasta-frutas" viewBox="0 0 32 32">
<path fill="#ffa5ba" style="fill: var(--color1, #ffa5ba)" d="M29.528 21.41c-1.292-0.458-2.382-0.344-3.242 0.018 0.145-0.877 0.47-1.832 1.17-2.481 0.431-0.4 0.456-1.074 0.056-1.505s-1.074-0.456-1.505-0.056c-1.229 1.14-1.706 2.748-1.874 4.081-0.32-0.144-0.673-0.253-1.058-0.311l1.89-9.83c0.060-0.312-0.022-0.634-0.225-0.879s-0.503-0.387-0.821-0.387h-0.204c0.094-0.5 0.141-0.997 0.137-1.47-0.016-1.994-0.903-3.495-2.374-4.017-1.41-0.5-2.59-0.35-3.507 0.066 0.145-0.976 0.494-2.063 1.282-2.794 0.431-0.4 0.456-1.074 0.056-1.505s-1.074-0.456-1.505-0.056c-1.32 1.225-1.815 2.965-1.982 4.386-0.735-0.348-1.644-0.527-2.708-0.33-1.094-1.571-2.613-2.296-4.089-1.942-1.451 0.349-2.358 1.115-2.901 1.962-0.41-0.899-0.712-2.001-0.452-3.036 0.143-0.57-0.203-1.149-0.773-1.292s-1.149 0.203-1.292 0.773c-0.439 1.746 0.095 3.476 0.729 4.758-1.016 0.137-2.117 0.65-3.049 1.866-0.578 0.755-0.773 1.698-0.596 2.7-0.173 0.065-0.329 0.173-0.449 0.318-0.202 0.245-0.285 0.567-0.225 0.879l3.809 19.81c0.096 0.501 0.535 0.864 1.046 0.864h15.237c0.511 0 0.949-0.362 1.046-0.864l0.037-0.195c0.287 0.198 0.596 0.363 0.927 0.487 1.266 0.471 2.447 0.278 3.044 0.118 0.316 0.085 0.795 0.179 1.364 0.179 0.506 0 1.084-0.075 1.68-0.297 2.36-0.879 3.615-3.839 3.596-6.178-0.015-1.904-0.866-3.339-2.276-3.839zM22.577 12.19c-0.49 4.705-4.452 7.909-9.971 7.909s-9.481-3.204-9.971-7.91h19.942zM15.934 7.515c0.184 0.349 0.536 0.567 0.93 0.567s0.746-0.218 0.93-0.567c0.029-0.048 0.29-0.466 0.769-0.777 0.629-0.408 1.35-0.46 2.203-0.157 0.851 0.302 0.952 1.518 0.956 2.027 0.004 0.464-0.064 0.962-0.191 1.453h-7.126c0.236-1.189 0.094-2.492-0.289-3.669 0.377 0.022 0.724 0.137 1.047 0.346 0.479 0.311 0.74 0.729 0.769 0.777zM2.98 8.724c0.55-0.719 1.182-1.068 1.932-1.069h0.002c0.57 0 1.016 0.208 1.066 0.232 0.341 0.189 0.749 0.172 1.079-0.037 0.331-0.211 0.51-0.591 0.481-0.983-0.006-0.077-0.115-1.893 1.983-2.397 0.876-0.211 1.625 0.754 1.906 1.178 0.807 1.22 1.221 3.108 0.777 4.413h-9.349c-0.141-0.443-0.179-0.943 0.122-1.336zM5.754 29.87l-2.111-10.978c0.138 0.133 0.281 0.263 0.427 0.389 2.208 1.901 5.239 2.948 8.535 2.948s6.328-1.047 8.535-2.948c0.052-0.044 0.102-0.090 0.152-0.135l-0.431 2.243c-0.020 0.007-0.041 0.013-0.061 0.021-1.41 0.5-2.261 1.935-2.276 3.839-0.009 1.164 0.297 2.483 0.898 3.622l-0.192 0.999h-13.477zM27.465 29.432c-0.943 0.351-1.881 0.017-1.916 0.005-0.25-0.097-0.518-0.099-0.768-0-0.009 0.004-0.96 0.352-1.917-0.004-1.338-0.498-2.223-2.556-2.21-4.165 0.004-0.466 0.095-1.578 0.858-1.849 0.349-0.124 0.661-0.175 0.939-0.175 1.107 0 1.657 0.812 1.782 1.024 0.184 0.35 0.535 0.569 0.931 0.569s0.747-0.219 0.931-0.569c0.156-0.266 0.977-1.468 2.721-0.849 0.763 0.271 0.854 1.383 0.858 1.849 0.013 1.609-0.872 3.667-2.21 4.165z"></path>
</symbol>
<symbol id="icon-flecha-how" viewBox="0 0 26 32">
<path fill="none" stroke="#d41443" style="stroke: var(--color2, #d41443)" stroke-linejoin="round" stroke-linecap="round" stroke-miterlimit="4" stroke-width="6.4" d="M5.172 3.2l14.169 12.8-14.169 12.8"></path>
</symbol>
<symbol id="icon-canasta-1" viewBox="0 0 49 32">
<path fill="#ffa5ba" style="fill: var(--color1, #ffa5ba)" d="M2.771 0.378c-0.921 0.493-1.454 1.48-1.454 2.648 0.016 2.138 0.549 4.095 1.616 5.789l0.469 0.773-0.889 1.003c-1.002 1.118-1.244 1.53-1.696 2.862-0.372 1.086-0.404 3.059-0.081 4.161 1.131 3.783 4.879 5.97 8.547 5 1.244-0.329 2.003-0.74 3.167-1.727l0.986-0.822 0.921 0.46c0.517 0.263 1.389 0.642 1.955 0.855l1.002 0.362v1.842c0 2.911 0.598 4.638 2.133 6.201s3.942 2.368 6.026 2.007c1.486-0.263 2.94-1.003 3.926-2.007 1.535-1.563 2.133-3.29 2.133-6.201v-1.842l1.018-0.362c0.549-0.214 1.422-0.592 1.939-0.855l0.921-0.46 0.986 0.822c1.163 0.987 1.923 1.398 3.167 1.727 3.668 0.97 7.416-1.217 8.547-5 0.323-1.102 0.291-3.076-0.081-4.161-0.452-1.332-0.695-1.743-1.696-2.862l-0.889-1.003 0.469-0.773c1.066-1.694 1.599-3.651 1.616-5.789 0-1.168-0.533-2.155-1.454-2.648l-0.695-0.378h-41.91l-0.695 0.378zM41.547 5.526c0 0.049-0.469 0.822-1.050 1.743-1.713 2.714-1.648 3.306 0.63 5.707 0.824 0.872 1.583 1.743 1.697 1.941 0.614 1.217-0.614 2.73-1.971 2.418-0.323-0.066-1.034-0.641-2.068-1.661-2.068-2.039-2.779-2.27-4.362-1.365-1.826 1.053-4.152 2.122-5.283 2.434-1.599 0.461-2.149 0.806-2.569 1.678-0.339 0.674-0.372 0.954-0.372 3.586 0 3.24-0.129 3.767-1.050 4.211-0.662 0.329-0.792 0.329-1.454 0-0.921-0.444-1.050-0.97-1.050-4.211 0-2.632-0.032-2.911-0.355-3.586-0.436-0.855-0.986-1.217-2.585-1.678-1.389-0.395-3.441-1.299-4.572-2.039-1.066-0.691-2.003-0.954-2.747-0.822-0.485 0.099-0.969 0.477-2.262 1.743-1.066 1.036-1.826 1.645-2.149 1.711-1.341 0.312-2.569-1.217-1.955-2.418 0.113-0.197 0.872-1.069 1.696-1.941 2.278-2.401 2.343-2.993 0.63-5.707-0.582-0.921-1.050-1.694-1.050-1.743 0-0.066 7.707-0.099 17.126-0.099s17.126 0.033 17.126 0.099z"></path>
</symbol>
<symbol id="icon-corazon-1" viewBox="0 0 25 32">
<path  fill="#ffa5ba" style="fill: var(--color1, #ffa5ba)" d="M12.643 12.585c0.188 2.235-0.595 5.623 1.8 5.976 1.225 0.18 2.154-0.551 2.361-1.481 0.193-0.871 0.026-2.732 0.117-3.315 0.134-0.851 1.171-0.499 2.82-0.854 0.833-0.179 1.709-0.544 2.426-0.676-1.105 4.345-5.296 7.171-9.115 8.573-0.892 0.328-1.234 0.103-2.642-0.488-1.812-0.762-2.985-1.577-4.391-2.805-1.067-0.933-2.299-2.328-3.043-4.060-0.629-1.465-0.855-2.951-0.693-4.555 0.078-0.772-0.035-1.048 0.736-0.98 4.496 0.394 5.259 2.98 9.622 4.664zM6.944 4.269c3.302 0 4.574 2.264 5.4 2.273 0.599 0.006 1.167-0.862 2.369-1.497 2.432-1.285 4.873-1.086 6.569 0.996 0.627 0.769 1.487 2.665 1.158 4.081-1.242 1.010-3.865 1.124-5.625 1.478-2.682 0.539-1.113 4.086-1.833 5.252-0.721 0.010-0.521-0.546-0.521-2.155 0.002-4.165-0.348-3.043-3.547-4.919-1.201-0.704-2.031-1.5-3.335-2.252-1.631-0.94-2.306-0.896-4.229-1.334 0.428-0.907 1.932-1.924 3.593-1.924zM10.27 22.144v7.316l1.752 0.003-0-6.698 0.681 0.007 0.006 6.699h1.752v-7.275c0.808-0.588 3.992-1.57 6.377-4.309 0.435-0.499 0.77-0.876 1.201-1.45 1.253-1.665 2.064-3.771 2.183-6.002 0.286-5.363-3.628-8.789-8.228-7.71-2.18 0.512-2.733 1.324-3.651 1.749-1.204-0.734-1.806-1.339-3.582-1.721-1.694-0.365-3.187-0.28-4.595 0.452-6.28 3.265-4.673 14.859 6.105 18.938z"></path>
</symbol>
</defs>
</svg>
